<?xml version="1.0" encoding="UTF-8"?>
<svg id="Layer_2" data-name="Layer 2" xmlns="http://www.w3.org/2000/svg" viewBox="0 0 15.85 15.85">
  <defs>
    <style>
      .cls-1 {
        fill: #f66b0e;
      }
    </style>
  </defs>
  <g id="Layer_1-2" data-name="Layer 1">
    <g>
      <path class="cls-1" d="M6.69,9.68v-.55s-3.17,0-3.17,0c-.36,0-.61-.3-.6-.63s.28-.62.65-.61c.08,0,.16.01.26-.02v-.62c.01-.35.32-.61.64-.6s.6.29.6.64v.59s2.24,0,2.24,0c.35,0,.6.28.6.62v1.14c0,.34-.26.59-.57.62-.33.02-.66-.21-.66-.59Z"/>
      <path class="cls-1" d="M13.36,9.13h-.67s-.01.73-.01.73c0,.32-.32.52-.62.51s-.6-.24-.6-.57l-.02-1.9h-1.69c-.35,0-.6-.3-.59-.63s.25-.6.6-.6h2.31c.35,0,.61.28.61.62v.61s.67.01.67.01c.35,0,.59.29.6.61s-.24.63-.6.63Z"/>
      <path class="cls-1" d="M9.79,15.85h-1.22c-.37,0-.64-.27-.64-.64v-.6s-.6,0-.6,0c-.37,0-.64-.28-.64-.64v-1.19c0-.37.28-.64.62-.64s.62.27.62.64v.6s.6,0,.6,0c.37,0,.64.27.64.64v.6s.6,0,.6,0c.35,0,.61.25.64.57s-.22.66-.61.66Z"/>
      <path class="cls-1" d="M15.23,15.85h-2.95c-.35,0-.62-.25-.64-.57-.02-.33.23-.66.59-.66h1.26s0-.59,0-.59c0-.38.29-.66.64-.65s.6.31.6.7v.54s.47,0,.47,0c.35,0,.62.25.64.57s-.22.66-.61.66Z"/>
      <path class="cls-1" d="M13.54,12.14c-.38,0-.64-.26-.66-.58s.23-.66.59-.66h1.14s0-1.15,0-1.15c0-.36.28-.62.62-.62s.62.26.62.62v1.73c0,.37-.27.64-.64.64h-1.66Z"/>
      <path class="cls-1" d="M8.88,12.14c-.37,0-.63-.26-.65-.58s.22-.65.58-.66h.35s0-1.14,0-1.14c0-.36.28-.62.62-.62s.62.26.62.62v1.73c0,.37-.27.64-.64.64h-.87Z"/>
      <path class="cls-1" d="M1.24,7.89v.63c0,.36-.29.61-.62.61S0,8.88,0,8.52v-1.28c0-.32.28-.58.6-.58h1.32c.32,0,.56.28.58.56.03.31-.19.65-.52.66h-.74Z"/>
      <path class="cls-1" d="M11.68,13.99c-.18.02-.34.02-.49-.02-.34-.09-.54-.43-.46-.74.09-.35.41-.49.76-.49s.7.15.76.51-.17.69-.56.74Z"/>
      <circle class="cls-1" cx="15.23" cy="7.27" r=".62"/>
      <g>
        <path class="cls-1" d="M6.68,4.13c0-.39.28-.66.64-.66h.6s0-1.11,0-1.11c-.23.01-.44.03-.66,0-.35-.04-.58-.32-.57-.64.01-.34.28-.59.65-.6h.58s0-.47,0-.47c0-.36.28-.64.62-.64s.62.27.62.64v3.42c0,.35-.25.64-.59.64h-.64s0,1.39,0,1.39c0,.36-.28.62-.62.62s-.62-.26-.62-.62v-1.96Z"/>
        <g>
          <path class="cls-1" d="M3.73,5.58h-1.87C.82,5.58,0,4.75,0,3.72v-1.84C0,.88.77.01,1.78,0h1.89c1.07-.01,1.91.82,1.91,1.89v1.85c0,1-.82,1.83-1.85,1.83ZM3.74,4.33c.35,0,.59-.3.59-.61v-1.84c0-.35-.26-.64-.62-.64h-1.83c-.36,0-.64.27-.64.64v1.83c0,.35.29.62.64.62h1.86Z"/>
          <circle class="cls-1" cx="2.79" cy="2.79" r=".62"/>
        </g>
        <g>
          <path class="cls-1" d="M14.02,5.58h-1.87c-1.02,0-1.87-.81-1.87-1.83v-1.85C10.27.81,11.14,0,12.23,0h1.84c1.01.01,1.78.88,1.78,1.88v1.84c0,1.01-.8,1.86-1.83,1.86ZM14,4.33c.36,0,.61-.29.61-.61v-1.84c0-.36-.27-.64-.64-.64h-1.83c-.36,0-.62.29-.62.64v1.84c0,.34.27.62.62.62h1.86Z"/>
          <circle class="cls-1" cx="13.06" cy="2.79" r=".62"/>
        </g>
      </g>
      <g>
        <path class="cls-1" d="M3.75,15.85h-1.87C.84,15.85,0,15.01,0,13.97v-1.89c0-1.02.85-1.8,1.85-1.8h1.85c1.04,0,1.87.83,1.87,1.87v1.81c0,1.02-.77,1.89-1.83,1.89ZM3.74,14.61c.36,0,.59-.31.59-.64v-1.79c0-.31-.17-.56-.47-.66l-2.12.02c-.29,0-.49.32-.49.59v1.84c0,.36.27.64.64.64h1.86Z"/>
        <circle class="cls-1" cx="2.79" cy="13.06" r=".62"/>
      </g>
    </g>
  </g>
</svg>